<svg width="536" height="151" viewBox="0 0 536 151" fill="none" xmlns="http://www.w3.org/2000/svg">
<path fill-rule="evenodd" clip-rule="evenodd" d="M0 67.1111L22.3333 72.7037C44.6667 78.2963 89.3333 89.4815 134 83.8889C178.667 78.2963 223.333 55.9259 268 47.537C312.667 39.1482 357.333 44.7407 402 64.3148C446.667 83.8889 491.333 117.444 513.667 134.222L536 151V3.09944e-06H513.667C491.333 3.09944e-06 446.667 3.09944e-06 402 3.09944e-06C357.333 3.09944e-06 312.667 3.09944e-06 268 3.09944e-06C223.333 3.09944e-06 178.667 3.09944e-06 134 3.09944e-06C89.3333 3.09944e-06 44.6667 3.09944e-06 22.3333 3.09944e-06H0V67.1111Z" fill="#2889CD"/>
</svg>
